<svg width="46" height="27" viewBox="0 0 46 27" fill="none" xmlns="http://www.w3.org/2000/svg">
<path d="M45.6956 8.45511C45.6958 3.793 41.9029 0 37.2407 0H8.4864C3.82415 0 0.0312881 3.793 0.0312881 8.45511V25.269C0.0314249 25.8357 0.490664 26.2949 1.05736 26.2949C1.62406 26.2949 2.0833 25.8355 2.0833 25.269V8.45511C2.0833 4.92435 4.95577 2.05188 8.4864 2.05188H37.2406C40.7712 2.05188 43.6437 4.92435 43.6437 8.4599L43.7231 25.2737C43.7259 25.8387 44.1846 26.2949 44.7489 26.2949C44.7506 26.2949 44.7522 26.2949 44.7539 26.2949C45.3206 26.2922 45.7777 25.8307 45.775 25.264L45.6956 8.45511Z" fill="white"/>
</svg>
