<svg width="7" height="7" viewBox="0 0 7 7" fill="none" xmlns="http://www.w3.org/2000/svg">
<path d="M5.66727 2.53794H4.72295V1.59362C4.72295 1.02706 4.26371 0.567688 3.69701 0.567688C3.13031 0.567688 2.67107 1.02706 2.67107 1.59362V2.53794H1.72675C1.16005 2.53794 0.700809 2.99732 0.700809 3.56388C0.700809 4.13044 1.16005 4.58982 1.72675 4.58982H2.67107V5.53427C2.67107 6.10083 3.13031 6.56021 3.69701 6.56021C4.26371 6.56021 4.72295 6.10083 4.72295 5.53427V4.58982H5.66727C6.23397 4.58982 6.69321 4.13044 6.69321 3.56388C6.69321 2.99732 6.23397 2.53794 5.66727 2.53794Z" fill="white"/>
</svg>
